<svg xmlns="http://www.w3.org/2000/svg" width="64" height="64" viewBox="0 0 64 64" version="1.1">
    <title>chest</title>
    <g id="chest" stroke="none" stroke-width="1" fill="none" fill-rule="evenodd">
        <rect id="chest-outline" stroke="#000000" stroke-width="4" fill="#FA6400" x="2" y="6" width="60" height="56" />
        <path d="M2 26L62 26 2 26Z" id="Line" stroke="#000000" stroke-width="4" stroke-linecap="square" />
        <path d="M40 22C40.55 22 41.05 22.22 41.41 22.59 41.78 22.95 42 23.45 42 24L42 24 42 32C42 34.76 40.88 37.26 39.07 39.07 37.26 40.88 34.76 42 32 42 29.28 42 26.82 40.92 25.02 39.16 23.22 37.41 22.08 34.98 22 32.28L22 32.28 22 24C22 23.45 22.22 22.95 22.59 22.59 22.95 22.22 23.45 22 24 22L24 22Z" id="Path" stroke="#000000" stroke-width="4" fill="#F7B500" />
        <path d="M33 30L33 32 31 32 31 30 33 30Z" id="chest-keyhole" stroke="#000000" stroke-width="4" fill="#000000" />
    </g>
</svg>