<?xml version="1.0" encoding="UTF-8"?>
<svg width="33px" height="21px" viewBox="0 0 33 21" version="1.1" xmlns="http://www.w3.org/2000/svg" xmlns:xlink="http://www.w3.org/1999/xlink">
    <title>Path Copy</title>
    <defs>
        <path d="M32.0987903,25.3894673 C32.8558014,25.0009368 33.5032412,24.9074508 34.1561987,24.8108524 C34.9224908,24.6974874 35.7334092,24.990355 36.4105625,25.3522746 C38.1608093,26.287733 39.3746288,28.2591979 39.3780495,31.4879698 C39.3801047,33.4317706 38.1609596,37.7708332 37.7337829,39.1314082 C37.4489496,39.9140436 37.1679509,40.6491148 36.8907868,41.3366217 C36.4519355,42.4044386 35.5240273,44.9420525 34.1070621,48.9494634 L34.0310747,49.1716135 L33.9576077,49.3879516 L33.8635757,49.6666525 L33.8062628,49.8374106 L33.7381923,50.0419031 C33.7269518,50.0758343 33.7157637,50.10969 33.7046278,50.1434703 L33.6384407,50.3452465 C33.6165876,50.4122034 33.5949438,50.4788585 33.5735092,50.5452119 L33.5098333,50.7433664 C33.4678012,50.8748659 33.4266061,51.0051581 33.3862482,51.1342431 L33.3263391,51.3269652 C33.3164588,51.3589346 33.3066309,51.3908286 33.2968554,51.4226472 L33.2388296,51.612653 L33.1820595,51.8008481 C33.1633454,51.863278 33.1448406,51.925406 33.126545,51.9872323 L33.0722861,52.1718057 C32.401897,54.4676554 32.0257893,56.3390932 31.9439631,57.7861191 C31.9136002,57.3627634 30.8314056,53.597421 28.8489493,50.8857085 C27.5225993,49.0714543 26.0916654,47.1981986 25.1478275,45.7862673 C24.4250092,44.7049696 24.0184652,43.8474056 23.9795034,43.7755192 C23.3025056,41.8588476 23.3485938,41.4746983 23.4113516,39.3835354 C23.4741093,37.2923725 24.3918065,33.9730341 25.2061897,32.4977961 C25.9108623,31.2212968 26.6742778,30.0611854 27.2799014,29.2790587 C28.7619458,27.3650867 29.568133,26.6883088 32.0987903,25.3894673 Z" id="path-1"></path>
        <filter x="-12.5%" y="-3.0%" width="125.0%" height="112.1%" filterUnits="objectBoundingBox" id="filter-2">
            <feOffset dx="0" dy="1" in="SourceAlpha" result="shadowOffsetOuter1"></feOffset>
            <feGaussianBlur stdDeviation="0.5" in="shadowOffsetOuter1" result="shadowBlurOuter1"></feGaussianBlur>
            <feColorMatrix values="0 0 0 0 0   0 0 0 0 0   0 0 0 0 0  0 0 0 0.5 0" type="matrix" in="shadowBlurOuter1"></feColorMatrix>
        </filter>
    </defs>
    <g id="map-marker-door" stroke="none" stroke-width="1" fill="none" fill-rule="evenodd" fill-opacity="1" opacity="0.691196987">
        <g id="icon-resizing" transform="translate(-15.000000, -31.000000)" fill="black">
            <g id="Path-Copy" transform="translate(31.378050, 41.286119) rotate(-300.000000) translate(-31.378050, -41.286119) ">
                <use filter="url(#filter-2)" xlink:href="#path-1"></use>
            </g>
        </g>
    </g>
</svg>