<?xml version="1.0" encoding="UTF-8"?>
<svg width="25px" height="25px" viewBox="0 0 25 25" version="1.1" xmlns="http://www.w3.org/2000/svg" xmlns:xlink="http://www.w3.org/1999/xlink">
    <title>two-way-trafic-sign</title>
    <g id="character-sprites" stroke="none" stroke-width="1" fill="none" fill-rule="evenodd">
        <g id="two-way-trafic-sign" transform="translate(1.000000, 1.000000)" fill-rule="nonzero">
            <g id="g4978" transform="translate(0.010518, 0.031144)" fill="#FFD51E">
                <path d="M12.5470591,0.441160043 C12.0341506,-0.0717483996 11.1851893,-0.0717483996 10.672275,0.441159459 L0.403471536,10.7093786 C-0.109436907,11.222287 -0.109436907,12.0712484 0.403470952,12.5841627 L10.6722744,22.8535504 C11.1851828,23.3664589 12.0341442,23.3664589 12.5470585,22.853551 L22.8164462,12.5847476 C23.3293547,12.0718391 23.3293547,11.2228778 22.8164468,10.7099635 L12.5482277,0.442328679 L12.5470591,0.441160043 Z" id="path4972" stroke="#AE8E05"></path>
                <path d="M12.1801074,0.80752739 L22.4483265,11.0757465 C22.7645828,11.3920086 22.7645828,11.9012125 22.4483259,12.2175038 L12.1801068,22.4857229 C11.8638447,22.8019791 11.3546409,22.801985 11.0383496,22.4857223 L0.770130458,12.2180875 C0.453874217,11.9018254 0.453874217,11.3926215 0.770131042,11.0763302 L11.0383502,0.807526806 C11.3546122,0.491270565 11.8638161,0.491270565 12.1801074,0.80752739 L12.1801074,0.80752739 Z" id="rect4970" stroke="#000000"></path>
            </g>
            <g id="g4966" transform="translate(6.210657, 5.056278)" fill="#000000">
                <path d="M1.78567562,0.0163609023 L1.78567562,8.00106552 L0.443555747,7.72401117 C0.296763394,7.72430333 0.153564597,7.80869053 0.0801801074,7.93582642 C0.00679561762,8.06296232 0.00701181525,8.22855802 0.0801801074,8.35580494 L2.87614144,12.3344258 L5.67151845,8.35580494 C5.74471012,8.22855802 5.7430974,8.06296232 5.66969538,7.93582642 C5.59631089,7.80869053 5.45311794,7.72427996 5.30631974,7.72401117 L3.96419987,8.00106552 L3.96419987,0.0163609023 L1.78580417,0.0163609023 L1.78567562,0.0163609023 Z" id="path4448"></path>
                <path d="M6.85346509,12.8047433 L6.85346509,4.82003867 L5.51134522,5.09709302 C5.36455287,5.09680086 5.22135407,5.01241366 5.14796958,4.88527777 C5.07458509,4.75814187 5.07480129,4.59254617 5.14796958,4.46529925 L7.94358032,0.486444683 L10.7391911,4.46529925 C10.8123827,4.59254617 10.81077,4.75814187 10.737368,4.88527777 C10.6639835,5.01241366 10.5207905,5.09682423 10.3739924,5.09709302 L9.03187248,4.82003867 L9.03187248,12.8047433 L6.85347678,12.8047433 L6.85346509,12.8047433 Z" id="path4454"></path>
            </g>
        </g>
    </g>
</svg>