<?xml version="1.0" encoding="UTF-8"?>
<svg width="31px" height="51px" viewBox="0 0 31 51" version="1.1" xmlns="http://www.w3.org/2000/svg" xmlns:xlink="http://www.w3.org/1999/xlink">
    <title>door</title>
    <defs>
        <linearGradient x1="34.3070312%" y1="10.848248%" x2="71.34142%" y2="70.6002543%" id="linearGradient-1">
            <stop stop-color="#57D050" offset="0%"></stop>
            <stop stop-color="#13490B" offset="99.9480988%"></stop>
        </linearGradient>
    </defs>
    <g id="map-marker-door" stroke="none" stroke-width="1" fill="none" fill-rule="evenodd">
        <g id="icon-resizing-red-copy" transform="translate(-2.000000, -1.000000)">
            <g id="door" transform="translate(2.475000, 1.650000)">
                <path d="M14.85,0 C23.0514285,0 29.7,6.7074456 29.7,14.9814991 C29.7,17.883342 28.8822143,20.5924895 27.4664653,22.8871726 C26.9549807,23.7940383 26.3488919,24.6221706 25.6480993,25.3715221 L25.5698438,25.4544592 C23.532122,27.5949815 21.8411162,30.4776352 20.5040795,33.1573297 L20.3778131,33.4118949 L20.3778131,33.4118949 L20.2536885,33.6650513 C20.2331796,33.7071166 20.21276,33.7491156 20.1924298,33.7910446 L20.0715205,34.0417478 L20.0715205,34.0417478 L19.9527565,34.2905888 L19.9527565,34.2905888 L19.8361391,34.5373861 L19.8361391,34.5373861 L19.7216698,34.7819584 L19.7216698,34.7819584 L19.60935,35.0241241 C19.5908092,35.0642744 19.572358,35.1043169 19.5539965,35.1442478 L19.4449035,35.3824636 L19.4449035,35.3824636 L19.3379633,35.6178192 C19.3203195,35.6567968 19.3027654,35.6956476 19.2853011,35.7343679 L19.1815929,35.9650933 L19.1815929,35.9650933 L19.0300745,36.3049116 L19.0300745,36.3049116 L18.8834127,36.636662 L18.8834127,36.636662 L18.7416122,36.959732 L18.7416122,36.959732 L18.5601151,37.3759312 L18.5601151,37.3759312 L18.44949,37.6309332 L18.44949,37.6309332 L18.3180972,37.9363116 C18.2964,37.9869825 18.2748037,38.0375408 18.2533082,38.0879863 L18.1255448,38.389307 C18.0833603,38.4892964 18.041579,38.5888349 18.000201,38.6879226 L17.8772769,38.983833 C17.796134,39.1802049 17.7166042,39.3747734 17.6386875,39.5675385 L17.5230223,39.8553336 C17.5039464,39.903074 17.4849713,39.9507017 17.466097,39.9982167 L17.3540612,40.2819541 L17.3540612,40.2819541 L17.244445,40.5629863 C17.2083095,40.6562129 17.1725773,40.7489886 17.1372484,40.8413135 L17.0324714,41.1169355 C15.7378821,44.5453036 15.0103916,47.3396584 14.85,49.5 C14.7271208,48.1508542 14.3920481,46.5505303 13.8447819,44.6990282 L13.7737655,44.4613018 C13.7497091,44.3816048 13.7252685,44.301453 13.7004436,44.2208464 L13.6248163,43.977662 C13.4584597,43.4478061 13.2758691,42.8987339 13.0770447,42.3304452 L12.9841269,42.0667936 L12.9841269,42.0667936 L12.8889036,41.800413 C12.7925277,41.532668 12.6926936,41.2608296 12.5894015,40.9848977 L12.4849566,40.7076013 C12.467357,40.6611578 12.4496614,40.6146006 12.4318696,40.5679297 L12.3239667,40.2865399 L12.3239667,40.2865399 L12.2137583,40.0024211 C12.1951981,39.9548406 12.1765419,39.9071463 12.1577896,39.8593383 L12.0441231,39.5711261 C12.0249865,39.5228633 12.005754,39.4744868 11.9864253,39.4259966 L11.8693007,39.133691 C11.8495878,39.0847459 11.8297789,39.0356872 11.8098739,38.9865148 L11.6892912,38.6901157 L11.6892912,38.6901157 L11.566403,38.3909876 L11.566403,38.3909876 L11.4412095,38.0891306 L11.4412095,38.0891306 L11.3137106,37.7845446 L11.3137106,37.7845446 L11.112878,37.3087724 L11.112878,37.3087724 L11.0424337,37.1398573 L11.0424337,37.1398573 L10.9373858,36.8852869 L10.9373858,36.8852869 L10.5837513,36.0200393 L10.5837513,36.0200393 L10.5107512,35.8427475 L10.5107512,35.8427475 L10.3988107,35.5734318 L10.3988107,35.5734318 L10.3222393,35.3914098 L10.3222393,35.3914098 L10.2438588,35.2072243 C9.26511481,32.9216247 7.82393457,30.1070185 4.08375,25.4544592 C3.70481369,24.9830858 3.35307297,24.5147693 3.02852785,24.0495099 C1.93764166,22.6047284 1.1012757,20.9537491 0.586643857,19.1647415 C0.531725371,18.975729 0.481465203,18.787468 0.436137786,18.5997614 C0.151161318,17.4410757 0,16.2290965 0,14.9814991 C0,6.7074456 6.64857147,0 14.85,0 Z" id="marker" fill="url(#linearGradient-1)"></path>
                <rect id="frame" stroke="#FFFFFF" stroke-width="1.2375" x="8.86875" y="6.80625" width="11.9625" height="18.5625"></rect>
                <path d="M17.7375,4.5375 L17.7375,27.6375 L8.6625,25.9263889 L8.6625,6.24861111 L17.7375,4.5375 Z M14.85,12.7875 C13.9387302,12.7875 13.2,13.8955952 13.2,15.2625 C13.2,16.6294048 13.9387302,17.7375 14.85,17.7375 C15.7612698,17.7375 16.5,16.6294048 16.5,15.2625 C16.5,13.8955952 15.7612698,12.7875 14.85,12.7875 Z" id="Shape" stroke="#FFFFFF" stroke-width="1.2375" fill="#FFFFFF"></path>
            </g>
        </g>
    </g>
</svg>