<?xml version="1.0" encoding="UTF-8"?>
<svg width="31px" height="51px" viewBox="0 0 31 51" version="1.1" xmlns="http://www.w3.org/2000/svg" xmlns:xlink="http://www.w3.org/1999/xlink">
    <title>door</title>
    <g id="map-marker-door" stroke="none" stroke-width="1" fill="none" fill-rule="evenodd">
        <g id="icon-resizing" transform="translate(-2.000000, -1.000000)">
            <g id="door" transform="translate(2.475000, 1.650000)">
                <path d="M14.85,0.825 C18.7220707,0.825 22.2272376,2.40892748 24.7646068,4.96876543 C27.3045968,7.53124743 28.875,11.0714521 28.875,14.9814991 C28.875,17.7242419 28.1025181,20.2850383 26.7643443,22.4539855 C26.2689961,23.3309468 25.7016761,24.1064081 25.0504704,24.8027826 C22.8769887,27.0866673 21.1346042,30.0446853 19.7616877,32.7973771 L19.7616877,32.7973771 L18.4293833,35.625985 C17.6919056,37.3373695 17.3214082,38.2000694 17.1244223,38.6617248 L17.0677583,38.7947017 C16.9650631,39.0360818 16.9234568,39.1362842 16.8941985,39.2080839 L16.8803727,39.2421389 L16.8803727,39.2421389 L16.8738085,39.2583702 C15.9420029,41.698118 15.2910894,43.6171025 14.845543,45.1998918 C14.7785907,44.9564382 14.7077706,44.7083613 14.6330636,44.4556416 C14.2941368,43.3579241 14.1100162,42.7941135 13.9348483,42.2857504 L13.8541062,42.0533161 C13.5638672,41.2394949 13.4640664,40.9681089 13.3585968,40.6864701 L13.3585968,40.6864701 L11.8760557,36.9954278 L11.3428646,35.6969726 C10.0002465,32.5422084 8.53517008,29.6750086 4.72674223,24.9375588 C4.35990774,24.4812393 4.0193509,24.0279153 3.70516977,23.5775134 C2.65612461,22.1871767 1.86578049,20.6271475 1.37888024,18.9345535 C1.3275125,18.7577616 1.28048399,18.5816772 1.23726331,18.4027262 C0.967805457,17.3071376 0.825,16.1611474 0.825,14.9814991 C0.825,11.0714521 2.39540321,7.53124743 4.9353932,4.96876543 C7.47276235,2.40892748 10.9779293,0.825 14.85,0.825 Z" id="marker" stroke="#87B385" stroke-width="1.65" fill="#98D070"></path>
                <rect id="frame" stroke="#202020" stroke-width="1.2375" x="8.86875" y="6.80625" width="11.9625" height="18.5625"></rect>
                <path d="M17.7375,4.5375 L17.7375,27.6375 L8.6625,25.9263889 L8.6625,6.24861111 L17.7375,4.5375 Z M14.85,12.7875 C13.9387302,12.7875 13.2,13.8955952 13.2,15.2625 C13.2,16.6294048 13.9387302,17.7375 14.85,17.7375 C15.7612698,17.7375 16.5,16.6294048 16.5,15.2625 C16.5,13.8955952 15.7612698,12.7875 14.85,12.7875 Z" id="Shape" stroke="#202020" stroke-width="1.2375" fill="#202020"></path>
            </g>
        </g>
    </g>
</svg>