<?xml version="1.0" encoding="UTF-8"?>
<svg width="25px" height="25px" viewBox="0 0 25 25" version="1.1" xmlns="http://www.w3.org/2000/svg" xmlns:xlink="http://www.w3.org/1999/xlink">
    <title>Roadsign-no-entry</title>
    <g id="character-sprites" stroke="none" stroke-width="1" fill="none" fill-rule="evenodd">
        <g id="Roadsign-no-entry" transform="translate(1.000000, 1.000000)">
            <path d="M23.0652686,11.5422601 C23.0914964,15.6492312 20.9015953,19.4554298 17.3265914,21.5164757 C13.7515874,23.5775216 9.33941576,23.5775216 5.76441183,21.5164757 C2.18940791,19.4554298 -0.000493161102,15.6492312 0.025734574,11.5422601 C-0.000493161102,7.43528906 2.18940791,3.62909046 5.76441183,1.56804457 C9.33941576,-0.493001325 13.7515874,-0.493001325 17.3265914,1.56804457 C20.9015953,3.62909046 23.0914964,7.43528906 23.0652686,11.5422601 L23.0652686,11.5422601 Z" id="path586" stroke-opacity="0.99608" stroke="#EB161E" fill="#FFFFFF"></path>
            <path d="M22.4239693,11.5270533 C22.4487785,15.4129643 20.3773181,19.0142921 16.9956681,20.964401 C13.6140181,22.9145099 9.44047844,22.9145099 6.0588284,20.964401 C2.67717836,19.0142921 0.605717975,15.4129643 0.630527184,11.5270533 C0.605717975,7.6411423 2.67717836,4.03981454 6.0588284,2.08970563 C9.44047844,0.139596722 13.6140181,0.139596722 16.9956681,2.08970563 C20.3773181,4.03981454 22.4487785,7.6411423 22.4239693,11.5270533 L22.4239693,11.5270533 Z" id="path591" stroke="#EB171F" fill-opacity="0.99608" fill="#EB161E"></path>
            <rect id="rect1066" fill="#FFFFFF" x="1.52354185" y="9.20091801" width="19.7874792" height="4.63406335" rx="2.31703167"></rect>
        </g>
    </g>
</svg>