<?xml version="1.0" encoding="UTF-8"?>
<svg width="48px" height="42px" viewBox="0 0 48 42" version="1.1" xmlns="http://www.w3.org/2000/svg" xmlns:xlink="http://www.w3.org/1999/xlink">
    <title>Group</title>
    <defs>
        <filter id="filter-1">
            <feColorMatrix in="SourceGraphic" type="matrix" values="0 0 0 0 0.996078 0 0 0 0 0.815686 0 0 0 0 0.000000 0 0 0 1.000000 0"></feColorMatrix>
        </filter>
        <filter id="filter-2">
            <feColorMatrix in="SourceGraphic" type="matrix" values="0 0 0 0 0.000000 0 0 0 0 0.000000 0 0 0 0 0.000000 0 0 0 1.000000 0"></feColorMatrix>
        </filter>
    </defs>
    <g id="glitch-icon" stroke="none" stroke-width="1" fill="none" fill-rule="evenodd">
        <g id="map-icon-50x80-rotate-copy" transform="translate(-11.000000, -7.000000)">
            <g id="Group" transform="translate(11.000000, 9.000000)">
                <g filter="url(#filter-1)" id="yellow-segments">
                    <g transform="translate(2.500000, 3.000000)">
                        <path d="M33.690983,32.5 L35.190983,35.5 L0.809016994,35.5 L2.30901699,32.5 L33.690983,32.5 Z" id="Path-12" stroke="#979797" fill="#D8D8D8"></path>
                        <path d="M39.190983,30.5 L39.690983,31.5 L12.309017,31.5 L12.809017,30.5 L39.190983,30.5 Z" id="Path-11" stroke="#979797" fill="#D8D8D8"></path>
                        <path d="M31.6750635,21.5 L35.230619,29.5 L5.76938099,29.5 L9.32493654,21.5 L31.6750635,21.5 Z" id="Path-13" stroke="#979797" fill="#D8D8D8"></path>
                        <path d="" id="Path-14" stroke="#979797" fill="#D8D8D8"></path>
                        <path d="M26.1666667,14.5 L28.25,19.5 L8.80901699,19.5 L11.309017,14.5 L26.1666667,14.5 Z" id="Path-15" stroke="#979797" fill="#D8D8D8"></path>
                        <path d="M23.190983,11.5 L24.190983,13.5 L10.809017,13.5 L11.809017,11.5 L23.190983,11.5 Z" id="Path-16" stroke="#979797" fill="#D8D8D8"></path>
                        <path d="M19.5,1.04416367 L24.6577289,10.5 L14.3422711,10.5 L19.5,1.04416367 Z" id="Path-17" stroke="#979797" fill="#D8D8D8"></path>
                    </g>
                </g>
                <g filter="url(#filter-2)" id="glitch-outline">
                    <g>
                        <polygon id="Path-Copy" fill="#1BE61C" points="22.5833333 23 27.8333333 23 29 24 23.1666667 24 22 23"></polygon>
                        <polygon id="Path-3" stroke="#1BE61C" fill="#1BE61C" points="33.5 24.5 37.5 32.5 39.5 32.5 35.5 24.5"></polygon>
                        <polygon id="Path-4" stroke="#1BE61C" fill="#1BE61C" points="28 17.5 30.5 22.5 32.5 22.5 30 17.5"></polygon>
                        <polygon id="Path-5" stroke="#1BE61C" fill="#1BE61C" points="26.5 14.5 27.5 16.5 29.5 16.5 28.5 14.5"></polygon>
                        <polygon id="Path" fill="#1BE61C" points="40.5833333 33 45.8333333 33 47.5 35 41.5 35 40 33"></polygon>
                        <polygon id="Path" fill="#1BE61C" transform="translate(12.250000, 34.000000) scale(-1, 1) translate(-12.250000, -34.000000) " points="9.08333333 33 14.3333333 33 16 35 10 35 8.5 33"></polygon>
                        <polygon id="Path-Copy" fill="#1BE61C" transform="translate(4.000000, 23.500000) scale(-1, 1) translate(-4.000000, -23.500000) " points="1.58333333 23 6.83333333 23 8 24 1.5 24 0 23"></polygon>
                        <polygon id="Path-3" stroke="#1BE61C" fill="#1BE61C" transform="translate(9.500000, 28.500000) scale(-1, 1) translate(-9.500000, -28.500000) " points="6.5 24.5 10.5 32.5 12.5 32.5 8.5 24.5"></polygon>
                        <polygon id="Path-4" stroke="#1BE61C" fill="#1BE61C" transform="translate(11.750000, 20.000000) scale(-1, 1) translate(-11.750000, -20.000000) " points="9.5 17.5 12 22.5 14 22.5 11.5 17.5"></polygon>
                        <polygon id="Path-5" stroke="#1BE61C" fill="#1BE61C" transform="translate(14.000000, 15.500000) scale(-1, 1) translate(-14.000000, -15.500000) " points="12.5 14.5 13.5 16.5 15.5 16.5 14.5 14.5"></polygon>
                        <polygon id="Path-6" stroke="#1BE61C" fill="#1BE61C" points="26.5 13.5 29 13.5 22 0 15 13.5 17.5 13.5 22 4.5"></polygon>
                        <polygon id="Path-2" fill="#1BE61C" points="3 35 0 40 41 40 38 35 35.5 35 37 37.7272727 4 37.7272727 5.5 35"></polygon>
                    </g>
                </g>
                <g id="exclamation" transform="translate(12.500000, 14.000000)" fill="#000000">
                    <circle id="Oval" cx="9.5" cy="18" r="3"></circle>
                    <polygon id="Path-9" points="7.5 9 7.5 3 11.5 3 11.5 9"></polygon>
                    <path d="M11,10.5 L11,13.5 L8,13.5 L8,10.5 L11,10.5 Z" id="Path-7" stroke="#000000"></path>
                    <polygon id="Path-10" points="7.5 3 7.5 0 11.5 0 11.5 3"></polygon>
                    <path d="" id="Path-18" stroke="#000000"></path>
                </g>
            </g>
        </g>
    </g>
</svg>